HIERARCHY
ROOT Hips
{
	OFFSET 0.000000 71.427986 0.000000
	CHANNELS 6 Xposition Yposition Zposition Xrotation Yrotation Zrotation
	JOINT Pelvis
	{
		OFFSET 0.000000 0.000000 0.000000
		CHANNELS 3 Xrotation Yrotation Zrotation
		JOINT LeftUpLeg
		{
			OFFSET 6.797100 -2.508499 -1.318700
			CHANNELS 3 Xrotation Yrotation Zrotation
			JOINT LeftLeg
			{
				OFFSET 0.069008 -29.241863 0.690200
				CHANNELS 3 Xrotation Yrotation Zrotation
				JOINT LeftFoot
				{
					OFFSET -0.069008 -29.568123 -0.266800
					CHANNELS 3 Xrotation Yrotation Zrotation
					JOINT LeftToeBase
					{
						OFFSET 3.145500 -8.631000 16.059900
						CHANNELS 3 Xrotation Yrotation Zrotation
						End Site
						{
							OFFSET 0.000000 18.501587 0.000000
						}
					}
				}
			}
			JOINT Left_ShortSleeve
			{
				OFFSET 0.265923 -10.480953 1.153800
				CHANNELS 3 Xrotation Yrotation Zrotation
				End Site
				{
					OFFSET 1.725763 19.823879 0.000000
				}
			}
		}
		JOINT RightUpLeg
		{
			OFFSET -6.797100 -2.508499 -1.318700
			CHANNELS 3 Xrotation Yrotation Zrotation
			JOINT RightLeg
			{
				OFFSET -0.082453 -29.241932 0.688000
				CHANNELS 3 Xrotation Yrotation Zrotation
				JOINT RightFoot
				{
					OFFSET 0.082453 -29.568058 -0.264600
					CHANNELS 3 Xrotation Yrotation Zrotation
					JOINT RightToeBase
					{
						OFFSET -3.115300 -8.682800 16.113400
						CHANNELS 3 Xrotation Yrotation Zrotation
						End Site
						{
							OFFSET 0.000000 18.567114 0.000000
						}
					}
				}
			}
			JOINT Right_ShortSleeve
			{
				OFFSET -0.265923 -10.480953 1.153800
				CHANNELS 3 Xrotation Yrotation Zrotation
				End Site
				{
					OFFSET -1.725766 19.823910 0.000000
				}
			}
		}
	}
	JOINT Spine
	{
		OFFSET 0.000000 13.368103 0.470500
		CHANNELS 3 Xrotation Yrotation Zrotation
		JOINT Spine1
		{
			OFFSET 0.147000 13.837402 0.538800
			CHANNELS 3 Xrotation Yrotation Zrotation
			JOINT Spine2
			{
				OFFSET 0.168000 16.242897 -1.435500
				CHANNELS 3 Xrotation Yrotation Zrotation
				JOINT Neck
				{
					OFFSET 0.217200 18.631500 -1.679100
					CHANNELS 3 Xrotation Yrotation Zrotation
					JOINT Head
					{
						OFFSET 0.000000 6.599396 1.385900
						CHANNELS 3 Xrotation Yrotation Zrotation
						JOINT Hat
						{
							OFFSET -0.532200 27.220596 -10.096100
							CHANNELS 3 Xrotation Yrotation Zrotation
							End Site
							{
								OFFSET 0.000000 22.029861 0.000000
							}
						}
						JOINT HairD
						{
							OFFSET -10.777400 17.437393 -1.325900
							CHANNELS 3 Xrotation Yrotation Zrotation
							JOINT HairD1
							{
								OFFSET -3.290299 -11.051193 1.062200
								CHANNELS 3 Xrotation Yrotation Zrotation
								End Site
								{
									OFFSET 0.000000 11.579437 0.000000
								}
							}
						}
						JOINT HairB
						{
							OFFSET -10.777400 17.437393 1.467900
							CHANNELS 3 Xrotation Yrotation Zrotation
							JOINT HairB1
							{
								OFFSET -1.561200 -12.956299 3.590200
								CHANNELS 3 Xrotation Yrotation Zrotation
								End Site
								{
									OFFSET 0.000000 13.534866 0.000000
								}
							}
						}
						JOINT HairA
						{
							OFFSET 9.713100 17.437393 1.467900
							CHANNELS 3 Xrotation Yrotation Zrotation
							JOINT HairA1
							{
								OFFSET 1.561200 -12.956299 3.590200
								CHANNELS 3 Xrotation Yrotation Zrotation
								End Site
								{
									OFFSET 0.000000 13.534866 0.000000
								}
							}
						}
						JOINT HairC
						{
							OFFSET 9.713100 17.437393 -1.325900
							CHANNELS 3 Xrotation Yrotation Zrotation
							JOINT HairC1
							{
								OFFSET 3.290300 -11.051193 1.062200
								CHANNELS 3 Xrotation Yrotation Zrotation
								End Site
								{
									OFFSET 0.000000 11.579437 0.000000
								}
							}
						}
					}
				}
				JOINT LeftShoulder
				{
					OFFSET 5.101800 15.108002 -2.763700
					CHANNELS 3 Xrotation Yrotation Zrotation
					JOINT LeftArm
					{
						OFFSET 9.825497 2.506317 -1.597400
						CHANNELS 3 Xrotation Yrotation Zrotation
						JOINT LeftForeArm
						{
							OFFSET 21.966244 0.000000 0.000000
							CHANNELS 3 Xrotation Yrotation Zrotation
							JOINT LeftHand
							{
								OFFSET 33.879036 0.000000 0.000000
								CHANNELS 3 Xrotation Yrotation Zrotation
								JOINT LeftHandThumb1
								{
									OFFSET 6.715286 -2.359680 3.363841
									CHANNELS 3 Xrotation Yrotation Zrotation
									JOINT LeftHandThumb2
									{
										OFFSET 2.507072 -1.447464 1.447461
										CHANNELS 3 Xrotation Yrotation Zrotation
										JOINT LeftHandThumb3
										{
											OFFSET 2.898338 -1.673355 1.673357
											CHANNELS 3 Xrotation Yrotation Zrotation
											End Site
											{
												OFFSET -0.295959 3.727692 -0.131651
											}
										}
									}
								}
								JOINT LeftHandIndex1
								{
									OFFSET 14.190811 -0.254547 3.840278
									CHANNELS 3 Xrotation Yrotation Zrotation
									JOINT LeftHandIndex2
									{
										OFFSET 3.551727 0.000000 -0.000000
										CHANNELS 3 Xrotation Yrotation Zrotation
										JOINT LeftHandIndex3
										{
											OFFSET 2.894196 0.000000 0.000000
											CHANNELS 3 Xrotation Yrotation Zrotation
											End Site
											{
												OFFSET -1.000603 2.690872 0.366626
											}
										}
									}
								}
								JOINT LeftHandMiddle1
								{
									OFFSET 13.776489 0.000000 0.000000
									CHANNELS 3 Xrotation Yrotation Zrotation
									JOINT LeftHandMiddle2
									{
										OFFSET 3.438232 0.000000 0.000000
										CHANNELS 3 Xrotation Yrotation Zrotation
										JOINT LeftHandMiddle3
										{
											OFFSET 3.691551 0.000000 0.000000
											CHANNELS 3 Xrotation Yrotation Zrotation
											End Site
											{
												OFFSET -1.082298 3.499527 0.457670
											}
										}
									}
								}
								JOINT LeftHandRing1
								{
									OFFSET 13.966164 -0.268127 -3.067488
									CHANNELS 3 Xrotation Yrotation Zrotation
									JOINT LeftHandRing2
									{
										OFFSET 3.162567 0.000000 0.000000
										CHANNELS 3 Xrotation Yrotation Zrotation
										JOINT LeftHandRing3
										{
											OFFSET 3.324348 0.000000 0.000000
											CHANNELS 3 Xrotation Yrotation Zrotation
											End Site
											{
												OFFSET -0.861900 3.184998 0.405154
											}
										}
									}
								}
								JOINT LeftHandPinky1
								{
									OFFSET 13.131393 -0.168503 -5.746925
									CHANNELS 3 Xrotation Yrotation Zrotation
									JOINT LeftHandPinky2
									{
										OFFSET 2.849182 0.000000 0.000000
										CHANNELS 3 Xrotation Yrotation Zrotation
										JOINT LeftHandPinky3
										{
											OFFSET 2.805038 0.000000 0.000000
											CHANNELS 3 Xrotation Yrotation Zrotation
											End Site
											{
												OFFSET -0.882500 2.642609 0.325652
											}
										}
									}
								}
							}
							JOINT Left_Sleeve
							{
								OFFSET 6.592125 -0.646545 0.805568
								CHANNELS 3 Xrotation Yrotation Zrotation
								End Site
								{
									OFFSET -0.000179 20.275787 -0.000000
								}
							}
						}
					}
				}
				JOINT RightShoulder
				{
					OFFSET -5.731700 15.108002 -2.763700
					CHANNELS 3 Xrotation Yrotation Zrotation
					JOINT RightArm
					{
						OFFSET -9.825497 2.506317 -1.597400
						CHANNELS 3 Xrotation Yrotation Zrotation
						JOINT RightForeArm
						{
							OFFSET -21.966242 0.000000 0.000000
							CHANNELS 3 Xrotation Yrotation Zrotation
							JOINT RightHand
							{
								OFFSET -33.879032 0.000000 0.000000
								CHANNELS 3 Xrotation Yrotation Zrotation
								JOINT RightHandThumb1
								{
									OFFSET -6.715286 -2.359680 3.363841
									CHANNELS 3 Xrotation Yrotation Zrotation
									JOINT RightHandThumb2
									{
										OFFSET -2.507072 -1.447464 1.447461
										CHANNELS 3 Xrotation Yrotation Zrotation
										JOINT RightHandThumb3
										{
											OFFSET -2.898338 -1.673355 1.673357
											CHANNELS 3 Xrotation Yrotation Zrotation
											End Site
											{
												OFFSET 0.295959 3.727692 -0.131651
											}
										}
									}
								}
								JOINT RightHandIndex1
								{
									OFFSET -14.190811 -0.254547 3.840278
									CHANNELS 3 Xrotation Yrotation Zrotation
									JOINT RightHandIndex2
									{
										OFFSET -3.551727 0.000000 -0.000000
										CHANNELS 3 Xrotation Yrotation Zrotation
										JOINT RightHandIndex3
										{
											OFFSET -2.894196 0.000000 0.000000
											CHANNELS 3 Xrotation Yrotation Zrotation
											End Site
											{
												OFFSET 1.000603 2.690872 0.366626
											}
										}
									}
								}
								JOINT RightHandMiddle1
								{
									OFFSET -13.776489 0.000000 0.000000
									CHANNELS 3 Xrotation Yrotation Zrotation
									JOINT RightHandMiddle2
									{
										OFFSET -3.438232 0.000000 0.000000
										CHANNELS 3 Xrotation Yrotation Zrotation
										JOINT RightHandMiddle3
										{
											OFFSET -3.691551 0.000000 0.000000
											CHANNELS 3 Xrotation Yrotation Zrotation
											End Site
											{
												OFFSET 1.082298 3.499527 0.457670
											}
										}
									}
								}
								JOINT RightHandRing1
								{
									OFFSET -13.966164 -0.268127 -3.067488
									CHANNELS 3 Xrotation Yrotation Zrotation
									JOINT RightHandRing2
									{
										OFFSET -3.162567 0.000000 0.000000
										CHANNELS 3 Xrotation Yrotation Zrotation
										JOINT RightHandRing3
										{
											OFFSET -3.324348 0.000000 0.000000
											CHANNELS 3 Xrotation Yrotation Zrotation
											End Site
											{
												OFFSET 0.861900 3.184998 0.405154
											}
										}
									}
								}
								JOINT RightHandPinky1
								{
									OFFSET -13.131393 -0.168503 -5.746925
									CHANNELS 3 Xrotation Yrotation Zrotation
									JOINT RightHandPinky2
									{
										OFFSET -2.849182 0.000000 0.000000
										CHANNELS 3 Xrotation Yrotation Zrotation
										JOINT RightHandPinky3
										{
											OFFSET -2.805038 0.000000 0.000000
											CHANNELS 3 Xrotation Yrotation Zrotation
											End Site
											{
												OFFSET 0.882500 2.642609 0.325652
											}
										}
									}
								}
							}
							JOINT Right_Sleeve
							{
								OFFSET -6.592125 -0.646545 0.805568
								CHANNELS 3 Xrotation Yrotation Zrotation
								End Site
								{
									OFFSET 0.000179 20.275787 -0.000000
								}
							}
						}
					}
				}
				JOINT Bind_Right_JacketString
				{
					OFFSET -3.534800 11.969597 7.200700
					CHANNELS 3 Xrotation Yrotation Zrotation
					JOINT Bind_Right_JacketString1
					{
						OFFSET -0.319900 -6.102600 2.794100
						CHANNELS 3 Xrotation Yrotation Zrotation
						End Site
						{
							OFFSET 0.000000 6.719452 0.000000
						}
					}
				}
				JOINT Bind_Left_JacketString
				{
					OFFSET 2.904800 11.969597 7.200700
					CHANNELS 3 Xrotation Yrotation Zrotation
					JOINT Bind_Left_JacketString1
					{
						OFFSET 0.364800 -5.904503 3.186800
						CHANNELS 3 Xrotation Yrotation Zrotation
						End Site
						{
							OFFSET 0.000000 6.719513 0.000000
						}
					}
				}
				JOINT HairE
				{
					OFFSET 5.915200 17.612701 -11.592200
					CHANNELS 3 Xrotation Yrotation Zrotation
					JOINT HairE1
					{
						OFFSET 0.289200 -7.171898 -1.284500
						CHANNELS 3 Xrotation Yrotation Zrotation
						End Site
						{
							OFFSET 0.000000 7.291756 0.000000
						}
					}
				}
				JOINT HairF
				{
					OFFSET -0.864800 17.612701 -11.592200
					CHANNELS 3 Xrotation Yrotation Zrotation
					JOINT HairF1
					{
						OFFSET 0.000000 -14.087097 -2.127501
						CHANNELS 3 Xrotation Yrotation Zrotation
						End Site
						{
							OFFSET 0.000000 14.246841 0.000000
						}
					}
				}
				JOINT HairG
				{
					OFFSET -8.087700 17.612701 -11.592200
					CHANNELS 3 Xrotation Yrotation Zrotation
					JOINT HairG1
					{
						OFFSET -0.293600 -6.081398 -0.910100
						CHANNELS 3 Xrotation Yrotation Zrotation
						End Site
						{
							OFFSET 0.000000 6.156120 0.000000
						}
					}
				}
			}
		}
	}
	JOINT Pouch
	{
		OFFSET 0.000000 4.394501 10.847300
		CHANNELS 3 Xrotation Yrotation Zrotation
		End Site
		{
			OFFSET 0.000000 21.880577 0.000000
		}
	}
	JOINT Bag
	{
		OFFSET -13.229000 4.813004 -0.593300
		CHANNELS 3 Xrotation Yrotation Zrotation
		End Site
		{
			OFFSET 0.000000 21.880577 0.000000
		}
	}
	JOINT OccupyGuyFacialAnim_Joint
	{
		OFFSET 1.000000 -70.206398 -1.655000
		CHANNELS 3 Xrotation Yrotation Zrotation
		End Site
		{
			OFFSET 0.000000 21.880577 0.000000
		}
	}
}
MOTION
Frames: 4
Frame Time: 0.016667
1.230013 55.477211 -34.283897 16.375010 -76.651477 15.145967 0.000000 0.000000 -0.000000 -44.654554 -4.873725 22.766709 75.494067 15.168477 1.152358 -22.995638 6.089018 -27.796952 0.000000 -0.000001 0.000000 -0.000002 -0.000001 -0.000003 -49.111253 -3.653242 -15.583538 82.160004 20.371505 -5.164035 -36.763848 -0.362560 1.046063 0.000000 -0.000000 0.000000 -0.000001 0.000000 -0.000000 4.432060 9.333586 -2.961471 9.594763 18.344811 -7.012219 9.594757 18.344792 -7.012212 2.735904 2.537202 0.917079 2.210330 -0.400985 -2.541343 -0.000005 -0.000001 0.000000 -0.000005 -0.000001 0.000000 -0.000005 -0.000001 0.000001 -0.000005 -0.000001 0.000000 -0.000004 -0.000002 0.000001 -0.000005 -0.000001 0.000000 -0.000004 -0.000002 0.000001 -0.000005 -0.000001 0.000000 -0.000005 -0.000001 0.000000 4.442672 -4.896770 0.391717 -74.044838 -32.200872 -59.779544 45.630062 -71.166377 44.297455 30.811560 -13.945435 5.324252 -19.313941 7.326428 -0.325112 17.757240 27.151351 -7.102077 -0.000001 0.000001 -0.000001 8.737624 0.556807 -27.858989 -3.246440 1.052127 -21.338368 0.000001 0.000001 -0.000002 -3.793156 6.626416 -20.382886 -1.406088 -1.003756 -21.514843 0.000000 0.000001 -0.000001 -8.139612 9.456980 -29.778914 1.966555 -4.844275 -27.350967 -0.000000 0.000003 -0.000002 -7.314754 11.108293 -42.805823 1.162391 -7.791588 -40.565214 -0.000000 -0.000001 0.000003 -0.000002 0.000002 -0.000001 3.889436 8.333832 -7.261185 -42.000247 -3.203192 27.938517 -12.789884 47.794918 2.424350 36.354187 22.263302 -26.066804 -9.151833 -3.932273 17.229574 -8.906340 -3.563911 -6.479051 0.000001 0.000001 0.000001 -2.009625 8.214005 -5.048297 -1.625970 -0.980976 33.676535 -0.000000 -0.000001 0.000000 -3.382731 -5.223049 -15.049917 -1.435152 -1.099676 25.006603 0.000001 -0.000001 -0.000001 -8.188923 -12.219943 -0.270453 2.472533 4.601764 34.000436 0.000001 -0.000002 -0.000001 -14.081781 -14.805130 6.122708 3.294877 9.546747 30.562317 -0.000001 0.000001 -0.000001 0.000002 -0.000001 0.000001 -0.000000 0.000001 -0.000000 -0.000000 -0.000001 0.000000 -0.000000 0.000001 -0.000000 -0.000000 0.000001 -0.000000 -0.000000 0.000001 -0.000000 -0.000000 -0.000001 0.000001 -0.000000 0.000001 -0.000000 -0.000000 0.000001 -0.000000 -0.000000 0.000001 -0.000000 -0.000000 -0.000001 0.000001 0.000000 0.000000 -0.000000 0.000000 0.000000 -0.000000 0.000000 0.000000 -0.000000 
1.576519 54.975708 -34.687336 23.727240 -75.384156 21.898396 -0.000000 -0.000001 0.000000 -48.233908 -5.551142 23.664512 76.460935 13.933370 0.921280 -22.794754 5.743015 -27.310870 0.000000 0.000000 0.000000 -0.000003 0.000000 0.000001 -52.090591 -3.378653 -15.036457 83.220275 19.403376 -4.661071 -36.970021 -0.371337 1.114424 0.000000 -0.000001 -0.000000 0.000003 0.000000 -0.000000 4.534254 9.185236 -3.012797 9.805972 18.007217 -7.165119 9.805983 18.007222 -7.165121 1.927740 4.490860 1.287775 1.537581 -0.532065 -4.732037 -0.000000 -0.000000 0.000001 -0.000000 -0.000000 0.000001 -0.000000 -0.000000 0.000001 -0.000000 -0.000000 0.000000 -0.000000 -0.000001 -0.000000 -0.000000 -0.000000 0.000000 -0.000000 -0.000001 -0.000000 -0.000000 -0.000000 0.000001 -0.000000 -0.000000 0.000001 4.342701 -4.985470 -0.341768 -66.423275 -29.193209 -56.580488 44.445475 -70.007397 43.935861 31.304465 -11.015001 4.016402 -19.044907 6.177771 0.481997 19.312385 28.165028 -8.456587 0.000001 0.000003 0.000002 9.294366 -0.270981 -31.038473 -3.248158 0.907459 -22.504500 0.000001 0.000000 -0.000000 -3.842864 6.742096 -20.716326 -1.447308 -1.155396 -22.951722 0.000001 0.000000 -0.000003 -8.079859 9.523672 -29.657959 1.892687 -4.850338 -27.940883 -0.000001 0.000003 0.000004 -7.803377 10.746641 -42.756581 1.095357 -7.784612 -41.809207 0.000000 0.000000 -0.000001 0.000003 -0.000000 0.000002 3.540731 8.113211 -5.624219 -39.216078 -4.972966 28.094467 -12.221733 46.311473 3.788292 34.197675 22.070056 -22.498758 -9.063447 -3.936838 17.210065 -8.695215 -3.775170 -6.551194 0.000001 0.000001 0.000001 -2.062654 8.026965 -3.931497 -1.632739 -0.857236 34.503076 -0.000001 0.000003 0.000001 -3.225489 -5.131284 -13.367340 -1.402171 -0.904898 26.301233 -0.000000 0.000000 -0.000001 -7.680283 -12.230751 1.506793 2.246286 4.705178 35.492617 -0.000001 -0.000001 -0.000000 -13.333118 -14.852453 8.352892 3.002295 9.636734 32.213932 -0.000002 -0.000002 -0.000001 -0.000001 0.000000 0.000000 -0.000002 0.000001 -0.000000 -0.000001 -0.000001 0.000000 -0.000002 0.000001 -0.000000 -0.000002 0.000001 -0.000000 -0.000002 0.000001 -0.000000 -0.000001 -0.000001 0.000001 -0.000002 0.000001 -0.000000 -0.000002 0.000001 -0.000000 -0.000002 0.000001 -0.000000 -0.000001 -0.000001 0.000001 -0.000000 -0.000001 0.000000 -0.000000 -0.000001 0.000000 -0.000000 -0.000001 0.000000 
1.952055 54.582390 -35.033546 29.736516 -73.867417 27.484758 -0.000000 0.000000 -0.000000 -51.667389 -6.118177 24.150625 77.079689 12.881619 0.669816 -22.391773 5.391593 -26.736256 0.000000 0.000000 -0.000000 -0.000002 0.000001 -0.000000 -54.948151 -2.971578 -14.622286 84.002748 18.344083 -4.272200 -37.029536 -0.515427 1.402572 0.000000 0.000000 -0.000000 -0.000002 -0.000000 -0.000001 4.638836 9.041746 -3.061692 10.016243 17.679740 -7.291493 10.016238 17.679747 -7.291498 1.141880 6.463880 1.637533 0.937891 -0.640678 -6.991575 0.000000 -0.000002 0.000002 0.000000 -0.000002 0.000002 0.000000 -0.000002 0.000002 0.000000 -0.000002 0.000001 -0.000002 -0.000001 -0.000000 0.000000 -0.000002 0.000001 -0.000002 -0.000001 -0.000000 0.000000 -0.000002 0.000002 0.000000 -0.000002 0.000002 4.231876 -4.936959 -0.833280 -58.521402 -25.699398 -53.642646 41.104536 -69.046492 41.375818 30.954182 -7.949362 3.669311 -18.695742 5.341767 1.222977 19.851253 28.173186 -9.185001 0.000001 0.000001 -0.000001 9.121594 -1.933213 -33.603335 -3.251635 0.762704 -23.660866 -0.000001 0.000001 0.000002 -3.890815 6.785530 -21.931753 -1.491385 -1.304144 -24.365626 -0.000000 0.000001 -0.000001 -7.771797 10.307820 -30.766457 1.809483 -4.872202 -28.906856 -0.000001 0.000001 -0.000003 -7.772683 11.953587 -44.457732 1.028323 -7.779509 -43.355312 -0.000000 -0.000000 -0.000001 -0.000001 0.000001 -0.000000 3.219525 7.942034 -3.888783 -35.652365 -7.358677 27.766297 -11.633912 45.311437 5.140155 31.216881 21.636475 -18.440998 -8.993640 -3.944193 17.135314 -8.463742 -3.999601 -6.613709 0.000001 -0.000001 0.000001 -2.142764 7.757681 -2.456753 -1.629382 -0.726818 35.289596 0.000001 0.000001 0.000000 -3.043229 -5.002364 -11.157963 -1.372899 -0.672060 27.878636 -0.000001 0.000002 -0.000001 -7.078835 -12.195052 3.756908 1.980158 4.816493 37.201062 0.000002 0.000002 -0.000004 -12.440641 -14.869037 10.893919 2.656902 9.731685 34.190056 -0.000000 0.000000 -0.000003 0.000001 -0.000002 0.000000 -0.000000 0.000000 0.000000 0.000000 0.000001 0.000001 -0.000000 0.000000 0.000001 -0.000000 0.000000 0.000001 -0.000000 0.000000 0.000000 0.000000 0.000001 0.000001 -0.000000 0.000000 0.000001 -0.000000 0.000000 0.000001 -0.000000 0.000000 0.000000 0.000000 0.000001 0.000001 -0.000000 0.000000 -0.000000 -0.000000 0.000000 -0.000000 -0.000000 0.000000 -0.000000 
2.335815 54.300858 -35.320805 34.312644 -72.225084 31.843168 -0.000000 -0.000002 0.000000 -54.805110 -6.501649 24.200805 77.352370 12.057928 0.463146 -21.857029 5.080402 -26.113439 -0.000000 -0.000000 -0.000000 -0.000003 -0.000001 -0.000003 -57.554651 -2.410901 -14.346761 84.524499 17.204978 -3.995250 -36.972432 -0.734342 1.889404 -0.000000 0.000002 -0.000000 0.000003 -0.000000 -0.000000 4.752691 8.901342 -3.101939 10.238197 17.364537 -7.376341 10.238197 17.364527 -7.376334 0.368232 8.396668 1.955984 0.410719 -0.716197 -9.243254 0.000002 0.000000 0.000000 0.000002 0.000000 0.000000 0.000002 0.000000 0.000000 0.000002 0.000000 0.000000 -0.000000 -0.000000 0.000001 0.000002 0.000000 0.000000 -0.000000 -0.000000 0.000001 0.000002 0.000000 0.000000 0.000002 0.000000 0.000000 4.107733 -4.811336 -1.179665 -50.713045 -21.636919 -51.563181 36.144541 -68.037611 36.990238 29.863725 -5.250575 4.082333 -18.282723 4.747862 1.912503 19.476279 27.304074 -9.321540 -0.000000 0.000001 -0.000001 8.191139 -4.289853 -35.718123 -3.258101 0.613760 -24.845298 0.000003 0.000002 0.000002 -3.936832 6.766885 -23.953759 -1.539539 -1.453379 -25.791206 -0.000001 0.000005 -0.000004 -7.141145 11.712611 -33.013053 1.716913 -4.907851 -30.228723 -0.000001 -0.000001 -0.000003 -7.043601 14.522714 -47.782586 0.961481 -7.775737 -45.186127 0.000002 -0.000002 0.000003 0.000003 0.000004 0.000004 2.932180 7.881681 -2.048417 -31.285856 -10.550638 27.298299 -11.071054 45.033326 6.402680 27.469773 20.872028 -13.854840 -8.937093 -3.951737 17.012516 -8.206374 -4.247613 -6.666330 -0.000001 -0.000002 0.000001 -2.237301 7.418789 -0.626213 -1.620783 -0.585832 36.089637 -0.000004 0.000003 -0.000004 -2.842427 -4.831146 -8.446981 -1.353444 -0.403319 29.723781 0.000000 -0.000003 -0.000003 -6.401984 -12.092142 6.441913 1.678101 4.929167 39.109161 0.000001 0.000003 -0.000002 -11.428148 -14.820814 13.730220 2.265929 9.821377 36.452460 0.000001 0.000003 -0.000001 -0.000000 -0.000002 0.000000 -0.000001 -0.000002 -0.000000 -0.000001 0.000000 -0.000001 -0.000001 -0.000002 0.000000 -0.000001 -0.000002 0.000000 -0.000001 -0.000002 -0.000000 -0.000001 0.000000 -0.000001 -0.000001 -0.000002 0.000000 -0.000001 -0.000002 0.000000 -0.000001 -0.000002 -0.000000 -0.000001 0.000000 -0.000001 -0.000000 -0.000002 0.000000 -0.000000 -0.000002 0.000000 -0.000000 -0.000002 0.000000 
